PathFileType	4	(X/Y/Z)	C:\Users\Basilio\Documents\Thesis Gigler\squatting_fais\c3dfiles\054\SJ_pre2\markers_experimental.trc
DataRate	CameraRate	NumFrames	NumMarkers	Units	OrigDataRate	OrigDataStartFrame	OrigNumFrames
200.000000	200.000000	4	61	mm	200.000000	0	2095
Frame#	Time	FHD			LBHD			RBHD			C7			T10			CLAV			LSHO			LUUPA			LMUPA			LDUPA			LLEP			LMEP			LRAD			LUL			LRFIN			RSHO			RUPA1			RMUPA			RDUPA			RLEP			RMEP			RRAD			RUL			RUFIN			LASI			RASI			USACR			LSACR			RSACR			LTHI1			LTHI2			LTHI3			LTHI4			LLFC			LMFC			LTIB1			LTIB2			LTIB3			LTIB4			LLMAL			LMMAL			LHEE			LMT1			LMT2			LMT5			RTHI			RTHI2			RTHI3			RTHI4			RLFC			RMFC			RTIB1			RTIB2			RTIB3			RTIB4			RLMAL			RMMAL			RHEE			RMT1			RMT2			RMT5			
		X1	Y1	Z1	X2	Y2	Z2	X3	Y3	Z3	X4	Y4	Z4	X5	Y5	Z5	X6	Y6	Z6	X7	Y7	Z7	X8	Y8	Z8	X9	Y9	Z9	X10	Y10	Z10	X11	Y11	Z11	X12	Y12	Z12	X13	Y13	Z13	X14	Y14	Z14	X15	Y15	Z15	X16	Y16	Z16	X17	Y17	Z17	X18	Y18	Z18	X19	Y19	Z19	X20	Y20	Z20	X21	Y21	Z21	X22	Y22	Z22	X23	Y23	Z23	X24	Y24	Z24	X25	Y25	Z25	X26	Y26	Z26	X27	Y27	Z27	X28	Y28	Z28	X29	Y29	Z29	X30	Y30	Z30	X31	Y31	Z31	X32	Y32	Z32	X33	Y33	Z33	X34	Y34	Z34	X35	Y35	Z35	X36	Y36	Z36	X37	Y37	Z37	X38	Y38	Z38	X39	Y39	Z39	X40	Y40	Z40	X41	Y41	Z41	X42	Y42	Z42	X43	Y43	Z43	X44	Y44	Z44	X45	Y45	Z45	X46	Y46	Z46	X47	Y47	Z47	X48	Y48	Z48	X49	Y49	Z49	X50	Y50	Z50	X51	Y51	Z51	X52	Y52	Z52	X53	Y53	Z53	X54	Y54	Z54	X55	Y55	Z55	X56	Y56	Z56	X57	Y57	Z57	X58	Y58	Z58	X59	Y59	Z59	X60	Y60	Z60	X61	Y61	Z61	

1	0	-61.25841522216798	1602.956909179688	-785.3391723632815	-210.5910339355469	1684.392456054688	-860.5124511718752	-229.8891143798829	1687.603759765625	-720.9600219726564	-367.0517578125001	1546.91748046875	-786.528503417969	-468.5580139160157	1215.568969726563	-831.3743286132815	-249.6485595703126	1445.808837890625	-811.2910156250002	-307.6029052734376	1547.370239257813	-953.0473632812502	-424.2562255859376	1454.139526367188	-1138.4189453125	-393.7419738769532	1412.61767578125	-1148.58837890625	-441.9534301757814	1405.387084960938	-1185.39404296875	-447.5799865722657	1344.194213867188	-1212.926025390625	-522.5482788085939	1333.482666015625	-1165.454833984375	-446.648162841797	1114.551879882813	-1079.975952148438	-409.8307495117189	1079.404418945313	-1137.535400390625	-388.6414184570314	1110.87744140625	-1045.183471679688	-276.9356079101563	1496.513427734375	-639.4187622070314	-379.3699951171876	1352.096923828125	-473.1167297363282	-359.3766479492188	1307.492309570313	-477.1066894531251	-407.6015625000001	1295.133666992188	-442.5098571777345	-421.9277648925782	1246.085693359375	-431.9693603515626	-492.6008300781251	1253.481811523438	-482.3389892578126	-428.3317871093751	1054.800537109375	-631.6442871093751	-364.7918395996094	1070.910278320313	-653.2088623046876	-383.2937622070313	1015.608642578125	-577.7377319335939	-302.9609375000001	1028.287719726563	-983.8274536132815	-276.5752258300782	1015.815185546875	-730.1227416992189	-474.6971435546876	1120.432250976563	-834.3237304687502	-484.4313049316407	1091.051147460938	-863.9379882812502	-476.0673217773439	1086.534545898438	-807.9378662109377	-408.3540039062501	811.0845947265627	-1084.83544921875	-376.5639038085938	732.0310058593751	-1096.957275390625	-329.8693847656251	736.1191406250001	-1094.312133789063	-405.4598999023439	679.1057128906251	-1085.414672851563	-400.2322692871095	522.9129028320314	-1085.927490234375	-353.2891235351563	498.0545654296876	-959.8408813476565	-362.5204162597657	352.7778625488282	-1067.751098632813	-422.4690246582032	318.2024841308594	-1124.677612304688	-380.9914855957032	310.3972778320313	-1105.217529296875	-386.283660888672	229.3872680664063	-1081.85302734375	-456.6877746582032	98.71138763427737	-1135.215454101563	-414.8944396972657	108.4009704589844	-1047.318603515625	-517.8032226562501	60.97631454467775	-1074.326049804688	-296.7496948242188	55.98619079589845	-1084.588256835938	-295.5483093261719	61.79616928100587	-1134.576293945313	-351.1018371582032	39.96008682250977	-1180.310180664063	-397.2433471679689	728.2694091796876	-668.3332519531251	-368.1776123046876	668.8124389648439	-673.5718383789064	-334.9704895019532	665.5471191406251	-678.0473022460939	-406.8063049316407	597.6580200195314	-695.0452880859376	-427.7562866210939	503.1052551269532	-704.7437744140626	-377.7309875488282	507.104217529297	-834.6538696289065	-377.2383728027344	395.2022705078126	-711.5025024414064	-449.0493164062501	321.1337585449219	-684.3814086914064	-403.4359130859376	313.9229736328126	-692.2738037109376	-387.1165466308595	264.7508850097657	-717.5948486328126	-445.644500732422	87.50581359863283	-709.1773681640626	-394.9549560546876	104.150375366211	-788.098815917969	-492.6871948242189	47.31024551391602	-779.9580078125002	-267.4648132324219	54.52399063110353	-743.0678100585939	-277.8872985839844	55.97862243652345	-696.1721801757814	-334.0359497070313	34.37101364135743	-657.1794433593751	
2	0.005	-61.7864227294922	1603.322021484375	-786.6779785156252	-211.0738830566407	1684.517822265625	-861.8577270507815	-230.4665679931641	1687.787841796875	-722.5363769531251	-367.5079650878907	1546.913818359375	-788.0586547851565	-468.5321350097657	1215.290283203125	-832.4285888671877	-249.757797241211	1445.912353515625	-812.6256103515627	-307.8945922851563	1547.080078125	-954.6113891601565	-424.7113037109376	1453.635864257813	-1139.822265625	-393.6801757812501	1412.017333984375	-1149.99169921875	-441.9317016601564	1404.635009765625	-1186.773559570313	-447.3762207031251	1343.336181640625	-1214.222534179688	-522.6766357421876	1332.778564453125	-1166.616577148438	-446.4234924316407	1113.936279296875	-1080.977905273438	-409.5328063964845	1078.831665039063	-1138.580200195313	-388.4607543945314	1110.413208007813	-1046.166015625	-277.4460754394532	1496.758422851563	-640.7648925781251	-379.8892211914063	1352.3662109375	-474.4475097656251	-359.8369445800782	1308.058349609375	-478.3034667968751	-408.1172180175782	1295.526611328125	-443.7718811035157	-422.0856018066407	1246.367065429688	-433.2588500976564	-492.9052124023439	1253.646118164063	-483.631317138672	-428.3892517089845	1054.8212890625	-632.5151977539064	-364.7810974121094	1070.973266601563	-654.1609497070314	-383.2437133789063	1015.841430664063	-578.5723876953126	-304.5527648925782	1027.329345703125	-984.4200439453127	-276.5733947753907	1015.796569824219	-730.7547607421876	-474.7286376953126	1120.302124023438	-835.2523193359377	-484.3396301269532	1090.693725585938	-864.7639770507815	-476.1928710937501	1086.393798828125	-808.9827880859377	-408.2379760742189	810.8179931640627	-1085.469848632813	-376.5546264648438	731.6728515625001	-1097.517944335938	-329.8333435058594	735.7973632812501	-1094.764038085938	-405.6537475585939	678.7355346679689	-1085.956298828125	-400.6566467285157	522.4791870117189	-1086.240234375	-353.9570617675782	497.7183227539064	-960.148376464844	-362.9380187988282	352.2988281250001	-1067.802124023438	-422.7770385742189	317.8293151855469	-1124.822143554688	-381.4949340820313	310.0833435058594	-1105.20458984375	-386.6770935058595	228.8396911621094	-1081.854370117188	-456.9383239746095	98.27739715576175	-1135.079345703125	-415.2477111816407	108.0599670410157	-1047.121948242188	-517.8950195312501	60.32239151000978	-1074.25732421875	-296.8511352539063	55.86846923828126	-1084.528686523438	-295.6817016601563	61.64668273925783	-1134.563842773438	-351.2403564453126	39.83910369873048	-1180.369873046875	-397.0177307128907	728.3366088867189	-668.9735107421876	-367.9428405761719	668.7960205078126	-673.6026611328126	-334.8464965820313	665.6345825195314	-678.5976562500001	-406.7005615234376	597.7165527343751	-695.6281127929689	-427.673065185547	503.2539672851564	-705.0924682617189	-377.5976867675782	507.0585937500001	-835.0808715820315	-377.1521301269532	395.2539978027345	-711.7921142578126	-449.0500488281251	321.2020874023438	-684.5831909179689	-403.3935852050782	313.9651184082032	-692.4949340820314	-387.0681152343751	264.7207946777344	-717.7336425781251	-445.664520263672	87.53981018066408	-709.2009887695314	-394.9899291992189	104.1528778076172	-788.1384277343752	-492.7134704589845	47.29378890991212	-779.9663696289065	-267.5016784667969	54.480037689209	-743.1685791015626	-277.8995056152344	55.98891448974611	-696.1225585937501	-334.0274963378907	34.39306259155274	-657.1846313476564	
3	0.01	-62.28404235839845	1603.607299804688	-788.155212402344	-211.6733703613282	1684.490966796875	-863.475524902344	-230.9588775634766	1687.899291992188	-724.1550903320314	-367.8820190429688	1546.911987304688	-789.6665649414065	-468.479217529297	1215.1044921875	-833.755554199219	-249.9769897460938	1445.927490234375	-814.0472412109377	-308.1514587402344	1546.85546875	-956.1958618164065	-424.3432006835939	1452.8447265625	-1141.341918945313	-393.479217529297	1411.47607421875	-1151.437133789063	-441.6808471679689	1403.913330078125	-1188.384033203125	-447.158905029297	1342.523315429688	-1215.615478515625	-522.2481079101564	1331.819091796875	-1168.264526367188	-446.2729797363282	1113.318115234375	-1082.058471679688	-409.1596679687501	1078.158935546875	-1139.516967773438	-388.1824035644532	1109.917846679688	-1047.239624023438	-277.8354797363282	1496.982421875	-642.2106323242189	-380.4169006347657	1352.6767578125	-475.7235107421876	-360.2752380371094	1308.439453125	-479.5314025878907	-408.5426025390626	1295.919799804688	-445.1793212890626	-422.4630737304689	1246.79931640625	-434.4980468750001	-493.2264404296876	1253.7998046875	-484.9450683593751	-428.2705078125001	1054.852783203125	-633.5492553710939	-364.7095947265626	1071.1484375	-655.0480346679689	-383.3664855957032	1016.017761230469	-579.4613037109376	-304.1741943359376	1027.114624023438	-985.231140136719	-276.3982238769532	1015.834777832031	-731.4735717773439	-474.569549560547	1120.025634765625	-836.4131469726565	-484.1514892578126	1090.4482421875	-866.015075683594	-476.0653686523439	1086.374145507813	-810.0239868164065	-408.1322326660157	810.5454711914065	-1086.186767578125	-376.5386352539063	731.2965698242189	-1098.045776367188	-329.7839965820313	735.4287109375001	-1095.20361328125	-405.0313110351564	678.1080932617189	-1086.353881835938	-401.1504516601564	522.1419677734376	-1086.442138671875	-354.5593872070313	497.3807678222657	-960.393249511719	-363.1705017089844	352.1084289550782	-1068.006103515625	-423.3048706054689	317.5555419921876	-1125.011108398438	-382.2073364257813	309.8117980957032	-1105.155151367188	-387.204559326172	228.3347320556641	-1081.767578125	-457.1156616210939	97.7253341674805	-1134.914184570313	-415.3837890625001	107.7035064697266	-1047.043090820313	-518.0506591796876	59.81637954711915	-1074.180053710938	-296.8928222656251	55.83397674560548	-1084.497802734375	-295.7786560058594	61.52012252807619	-1134.537475585938	-351.3454589843751	39.76483535766602	-1180.382202148438	-396.7854614257814	728.3861694335939	-669.5473022460939	-368.0683288574219	668.9995727539064	-674.3997802734376	-334.8157348632813	665.6829833984376	-679.0685424804689	-407.0374755859376	597.7611083984376	-695.4050903320314	-427.6642150878907	503.3683166503907	-705.4640502929689	-377.3916931152344	506.9615783691407	-835.4230957031252	-377.1362304687501	395.256805419922	-712.1369018554689	-449.0198974609376	321.3865966796876	-684.8800659179689	-403.2922668457032	314.0741271972657	-692.7639770507814	-386.9959106445314	264.7767333984376	-717.9664916992189	-445.6477050781251	87.56887817382814	-709.2409057617189	-394.9570312500001	104.1239852905274	-788.1579589843752	-492.7382202148439	47.29105377197266	-779.9722900390627	-267.5486450195313	54.4752883911133	-743.2001953125001	-277.8954772949219	55.99784469604494	-696.1472167968751	-334.0567321777344	34.36810302734376	-657.1936645507814	
4	0.015	-62.62715148925783	1603.783569335938	-789.6768798828127	-211.9924316406251	1684.56689453125	-865.1182250976565	-231.5545959472657	1688.007202148438	-725.7438354492189	-368.3538513183594	1546.869140625	-791.206481933594	-468.5166931152345	1214.903442382813	-834.8755493164065	-250.3898620605469	1445.987426757813	-815.3889160156252	-308.4592895507813	1546.627563476563	-957.7046508789065	-424.3244018554689	1452.180786132813	-1142.9287109375	-393.5303649902345	1410.7421875	-1152.868041992188	-441.6677551269532	1403.047729492188	-1189.81298828125	-447.021942138672	1341.723510742188	-1216.983642578125	-522.0325317382814	1331.013061523438	-1169.71484375	-445.9719543457032	1112.72314453125	-1083.053833007813	-408.7911376953126	1077.571044921875	-1140.5986328125	-387.9047241210939	1109.538940429688	-1048.211181640625	-278.3287048339844	1497.213989257813	-643.6275024414064	-380.8446350097657	1353.128540039063	-477.130828857422	-360.7480163574219	1308.769287109375	-480.8269348144532	-408.9652099609376	1296.280883789063	-446.3143005371095	-422.9444885253907	1247.156982421875	-435.7803039550782	-493.7067871093751	1254.0029296875	-486.1614990234376	-428.4346008300782	1054.99169921875	-634.4645996093751	-363.8759460449219	1071.25537109375	-655.4526367187501	-383.4785156250001	1016.288635253906	-580.2074584960939	-303.8168945312501	1026.843383789063	-986.090759277344	-276.1256408691407	1016.068603515625	-732.4035034179689	-474.5262756347657	1119.958862304688	-837.414245605469	-484.136688232422	1090.27734375	-866.8415527343752	-476.1937866210939	1086.095825195313	-810.992614746094	-408.0125427246095	810.240417480469	-1086.85888671875	-376.6502075195313	730.9759521484376	-1098.477172851563	-329.7774353027344	734.9669189453126	-1095.695556640625	-405.4551391601564	677.9372558593751	-1086.839965820313	-401.700408935547	521.8262329101564	-1086.637329101563	-355.0052795410157	497.1256408691407	-960.5703125000002	-363.4469299316407	351.8677368164063	-1068.191040039063	-423.7776794433595	317.2168884277344	-1125.08056640625	-382.5399475097657	309.4354248046876	-1105.234375	-387.5128784179689	228.1698913574219	-1081.755493164063	-457.2544860839845	97.28932189941409	-1134.796752929688	-415.5630798339845	107.3627471923828	-1046.90673828125	-518.1048583984376	59.33606719970705	-1073.9521484375	-297.1387634277344	55.79015350341798	-1084.570190429688	-295.8339233398438	61.43535232543947	-1134.507568359375	-351.4633178710938	39.58661651611329	-1180.396606445313	-396.7037963867189	728.4316406250001	-670.0478515625001	-367.9884033203126	669.1148071289064	-674.8206176757814	-334.7205200195313	665.7713623046876	-679.5308227539064	-406.9046936035157	597.8090820312501	-695.7068481445314	-427.6217346191407	503.3530273437501	-705.9205932617189	-377.3219604492188	506.8499755859376	-835.7446289062502	-377.0443420410157	395.2412109375001	-712.3862304687501	-448.9575500488282	321.4653320312501	-685.1192016601564	-403.2712402343751	314.1061096191407	-692.9434204101564	-387.1374816894532	264.8626098632813	-718.1442260742189	-445.6527099609376	87.5662307739258	-709.2636108398439	-394.9542846679689	104.1453933715821	-788.1709594726565	-492.7361145019532	47.3053092956543	-779.9437255859377	-267.5199584960938	54.52245712280275	-743.1325073242189	-277.8955078125001	55.99782180786134	-696.1472778320314	-334.0309753417969	34.38100814819337	-657.1777343750001	
